<?xml version="1.0" encoding="UTF-8"?>
<svg version="1.1" xmlns="http://www.w3.org/2000/svg" width="64" height="64">
<path d="M0 0 C0.85902924 0.00328812 1.71805847 0.00657623 2.6031189 0.00996399 C4.41713038 0.02038271 6.23110851 0.04032916 8.04492188 0.0690918 C10.83221584 0.11322233 13.61864974 0.13053294 16.40625 0.14257812 C18.16667919 0.15599948 19.92709771 0.1709217 21.6875 0.1875 C22.94525742 0.1985804 22.94525742 0.1985804 24.22842407 0.20988464 C30.09265943 0.30750318 30.09265943 0.30750318 31.2109375 1.42578125 C32.70831874 1.52368695 34.21036642 1.55552989 35.7109375 1.55078125 C36.525625 1.55335938 37.3403125 1.5559375 38.1796875 1.55859375 C40.20624127 1.65029905 40.20624127 1.65029905 41.2109375 0.42578125 C43.6484375 0.23828125 43.6484375 0.23828125 46.2109375 0.42578125 C48.2109375 2.42578125 48.2109375 2.42578125 48.45144653 5.02005005 C48.44700531 6.11703217 48.44256409 7.21401428 48.43798828 8.34423828 C48.43783722 9.58537384 48.43768616 10.8265094 48.43753052 12.10525513 C48.4273165 13.46470295 48.4168845 14.82414915 48.40625 16.18359375 C48.40252034 17.57078854 48.39967315 18.95798596 48.39767456 20.34518433 C48.39003434 23.99818176 48.37038266 27.65102042 48.3482666 31.30395508 C48.32781646 35.03073947 48.31856514 38.75755026 48.30859375 42.484375 C48.28819793 49.79831736 48.24905309 57.11182359 48.2109375 64.42578125 C33.0309375 64.42578125 17.8509375 64.42578125 2.2109375 64.42578125 C2.2109375 63.76578125 2.2109375 63.10578125 2.2109375 62.42578125 C-0.7590625 62.42578125 -3.7290625 62.42578125 -6.7890625 62.42578125 C-6.7890625 63.08578125 -6.7890625 63.74578125 -6.7890625 64.42578125 C-9.7590625 64.42578125 -12.7290625 64.42578125 -15.7890625 64.42578125 C-15.7890625 63.10578125 -15.7890625 61.78578125 -15.7890625 60.42578125 C-14.1390625 60.42578125 -12.4890625 60.42578125 -10.7890625 60.42578125 C-10.7890625 51.84578125 -10.7890625 43.26578125 -10.7890625 34.42578125 C-10.1290625 34.42578125 -9.4690625 34.42578125 -8.7890625 34.42578125 C-8.7890625 32.77578125 -8.7890625 31.12578125 -8.7890625 29.42578125 C-9.4078125 29.30203125 -10.0265625 29.17828125 -10.6640625 29.05078125 C-12.7890625 28.42578125 -12.7890625 28.42578125 -14.7890625 26.42578125 C-15.12266404 21.35881443 -14.45569654 16.70424826 -13.4765625 11.73828125 C-13.23292969 10.45566406 -12.98929688 9.17304688 -12.73828125 7.8515625 C-10.62570328 0.22715558 -7.49563277 -0.15726907 0 0 Z " fill="#535963" transform="translate(15.7890625,-0.42578125)"/>
<path d="M0 0 C0.66 0 1.32 0 2 0 C2 18.48 2 36.96 2 56 C-10.87 56 -23.74 56 -37 56 C-37 47.75 -37 39.5 -37 31 C-41.62 31 -46.24 31 -51 31 C-51 29.02 -51 27.04 -51 25 C-49.75387939 24.99589111 -48.50775879 24.99178223 -47.22387695 24.98754883 C-42.59227362 24.96574633 -37.96151846 24.91144485 -33.33032227 24.84741211 C-31.32747539 24.82424189 -29.32450683 24.80983868 -27.3215332 24.80444336 C-24.43884546 24.79514667 -21.55806881 24.75414094 -18.67578125 24.70703125 C-17.33644279 24.71293022 -17.33644279 24.71293022 -15.970047 24.71894836 C-11.56388789 24.61597247 -9.57861072 24.43569159 -5.96459961 21.71435547 C-4.1526398 19.21089217 -3.30540738 17.86184211 -2.890625 14.86328125 C-2.77589844 14.12142578 -2.66117188 13.37957031 -2.54296875 12.61523438 C-2.39794922 11.47538086 -2.39794922 11.47538086 -2.25 10.3125 C-1.05874558 2.11749117 -1.05874558 2.11749117 0 0 Z " fill="#C5C1F2" transform="translate(58,4)"/>
<path d="M0 0 C2.97 0 5.94 0 9 0 C8.43559464 3.2543373 7.84947385 6.50210439 7.25 9.75 C7.01410156 11.13058594 7.01410156 11.13058594 6.7734375 12.5390625 C6.52207031 13.87324219 6.52207031 13.87324219 6.265625 15.234375 C6.04567871 16.45979004 6.04567871 16.45979004 5.82128906 17.70996094 C4.69460771 20.85153973 3.77874418 22.09171879 1 24 C-2.18531639 24.55739224 -5.31736588 24.48888673 -8.54296875 24.42578125 C-9.46717117 24.42249313 -10.3913736 24.41920502 -11.34358215 24.41581726 C-13.29284732 24.40540803 -15.24208174 24.38547775 -17.19116211 24.35668945 C-20.18685778 24.31250947 -23.18175287 24.29523913 -26.17773438 24.28320312 C-28.07032416 24.26978363 -29.96290402 24.25486192 -31.85546875 24.23828125 C-32.75645798 24.23089432 -33.6574472 24.22350739 -34.58573914 24.21589661 C-40.88171392 24.11828608 -40.88171392 24.11828608 -42 23 C-42.52129432 15.0502617 -41.0618579 10.24743159 -39 2 C-26.79 2 -14.58 2 -2 2 C-3.485 11.9 -3.485 11.9 -5 22 C-4.34 21.67 -3.68 21.34 -3 21 C-2.35408889 18.40450398 -1.8286907 15.87955428 -1.375 13.25 C-1.2409375 12.53328125 -1.106875 11.8165625 -0.96875 11.078125 C-0.29663355 7.34719289 0.16421373 3.79184423 0 0 Z " fill="#F7F7F8" transform="translate(47,2)"/>
<path d="M0 0 C7.92 0 15.84 0 24 0 C24 4.95 24 9.9 24 15 C16.08 15 8.16 15 0 15 C0 10.05 0 5.1 0 0 Z " fill="#FFFFFF" transform="translate(29,38)"/>
<path d="M0 0 C1.30066406 -0.00128906 2.60132813 -0.00257812 3.94140625 -0.00390625 C4.96258545 -0.00076416 4.96258545 -0.00076416 6.00439453 0.00244141 C8.08503515 0.0077901 10.16545989 0.0024957 12.24609375 -0.00390625 C14.19708984 -0.00197266 14.19708984 -0.00197266 16.1875 0 C17.39083984 0.00112793 18.59417969 0.00225586 19.83398438 0.00341797 C22.59375 0.1328125 22.59375 0.1328125 23.59375 1.1328125 C23.69255797 2.60933914 23.72454245 4.09048486 23.7265625 5.5703125 C23.72849609 6.91222656 23.72849609 6.91222656 23.73046875 8.28125 C23.72660156 9.22226562 23.72273438 10.16328125 23.71875 11.1328125 C23.72455078 12.54433594 23.72455078 12.54433594 23.73046875 13.984375 C23.72917969 14.87898438 23.72789063 15.77359375 23.7265625 16.6953125 C23.72543457 17.52160156 23.72430664 18.34789063 23.72314453 19.19921875 C23.59375 21.1328125 23.59375 21.1328125 22.59375 22.1328125 C20.37519736 22.22064792 18.15386504 22.23975859 15.93359375 22.23046875 C14.93689415 22.22834633 14.93689415 22.22834633 13.9200592 22.22618103 C11.79041101 22.22056768 9.66086661 22.20801304 7.53125 22.1953125 C6.09049631 22.19029921 4.64974097 22.18573601 3.20898438 22.18164062 C-0.32946102 22.17059395 -3.86784539 22.15332042 -7.40625 22.1328125 C-7.43512814 18.65366309 -7.45300687 15.17454419 -7.46875 11.6953125 C-7.47712891 10.70208984 -7.48550781 9.70886719 -7.49414062 8.68554688 C-7.49736328 7.74130859 -7.50058594 6.79707031 -7.50390625 5.82421875 C-7.50914307 4.94967041 -7.51437988 4.07512207 -7.51977539 3.17407227 C-7.2722113 -1.27728981 -3.67933144 0.00344876 0 0 Z M-4.40625 4.1328125 C-4.40625 9.0828125 -4.40625 14.0328125 -4.40625 19.1328125 C3.51375 19.1328125 11.43375 19.1328125 19.59375 19.1328125 C19.59375 14.1828125 19.59375 9.2328125 19.59375 4.1328125 C11.67375 4.1328125 3.75375 4.1328125 -4.40625 4.1328125 Z " fill="#595F6B" transform="translate(33.40625,33.8671875)"/>
<path d="M0 0 C2.97 0 5.94 0 9 0 C8.38321017 3.27257905 7.75696811 6.54284941 7.125 9.8125 C6.86396484 11.2056543 6.86396484 11.2056543 6.59765625 12.62695312 C6.33662109 13.9659668 6.33662109 13.9659668 6.0703125 15.33203125 C5.91320801 16.15421143 5.75610352 16.9763916 5.59423828 17.82348633 C5 20 5 20 3 23 C0.04935852 23.2208564 -2.68368231 23.28060989 -5.625 23.1875 C-6.42679688 23.17396484 -7.22859375 23.16042969 -8.0546875 23.14648438 C-10.03674378 23.11109051 -12.01845551 23.05728234 -14 23 C-13.79503906 22.23816406 -13.59007812 21.47632812 -13.37890625 20.69140625 C-11.74722695 14.43793676 -10.53672183 8.44066194 -10 2 C-7.36 2 -4.72 2 -2 2 C-2.99 8.6 -3.98 15.2 -5 22 C-4.34 21.67 -3.68 21.34 -3 21 C-2.35408889 18.40450398 -1.8286907 15.87955428 -1.375 13.25 C-1.2409375 12.53328125 -1.106875 11.8165625 -0.96875 11.078125 C-0.29663355 7.34719289 0.16421373 3.79184423 0 0 Z " fill="#F7F7F8" transform="translate(47,2)"/>
<path d="M0 0 C2.97 0 5.94 0 9 0 C9.21225012 6.57975358 8.73300103 12.62458017 7 19 C6.67 19.33 6.34 19.66 6 20 C17.22 20.33 28.44 20.66 40 21 C40 21.33 40 21.66 40 22 C34.03686834 22.02464574 28.07376605 22.042834 22.1105957 22.05493164 C20.08031702 22.05997278 18.05004198 22.06680557 16.01977539 22.07543945 C13.10822653 22.08751467 10.1967255 22.09323034 7.28515625 22.09765625 C5.91485008 22.10539818 5.91485008 22.10539818 4.51686096 22.11329651 C2.34424573 22.11349168 0.17172704 22.06211805 -2 22 C-3 21 -3 21 -3.25 17.1875 C-3.21156448 11.22999439 -1.61942115 5.69689227 0 0 Z " fill="#E4E5E6" transform="translate(8,4)"/>
<path d="M0 0 C6.93 0 13.86 0 21 0 C21 1.65 21 3.3 21 5 C20.67 5.33 20.34 5.66 20 6 C19.84344973 7.48638992 19.74933057 8.97949127 19.68359375 10.47265625 C19.64169922 11.37177734 19.59980469 12.27089844 19.55664062 13.19726562 C19.51732422 14.14279297 19.47800781 15.08832031 19.4375 16.0625 C19.39431641 17.01189453 19.35113281 17.96128906 19.30664062 18.93945312 C19.20020724 21.29281353 19.09818992 23.64628354 19 26 C17.35 26 15.7 26 14 26 C14 19.4 14 12.8 14 6 C9.38 6 4.76 6 0 6 C0 4.02 0 2.04 0 0 Z " fill="#E2E2F4" transform="translate(7,29)"/>
<path d="M0 0 C2.97 0 5.94 0 9 0 C9 7.92 9 15.84 9 24 C6.03 24 3.06 24 0 24 C0 16.08 0 8.16 0 0 Z " fill="#FFFFFF" transform="translate(9,38)"/>
<path d="M0 0 C0.99 0 1.98 0 3 0 C3.25706972 5.91260345 2.2982126 11.23918159 1 17 C0.01 17.33 -0.98 17.66 -2 18 C-2.27560214 11.79895188 -1.22899346 6.06815522 0 0 Z " fill="#565D65" transform="translate(34,6)"/>
<path d="M0 0 C0.99 0 1.98 0 3 0 C3.25706972 5.91260345 2.2982126 11.23918159 1 17 C0.01 17.33 -0.98 17.66 -2 18 C-2.27560214 11.79895188 -1.22899346 6.06815522 0 0 Z " fill="#565D65" transform="translate(24,6)"/>
<path d="M0 0 C0.99 0 1.98 0 3 0 C3.25706972 5.91260345 2.2982126 11.23918159 1 17 C0.01 17.33 -0.98 17.66 -2 18 C-2.27560214 11.79895188 -1.22899346 6.06815522 0 0 Z " fill="#565D65" transform="translate(14,6)"/>
</svg>
